<svg width="44" height="45" viewBox="0 0 44 45" fill="none" xmlns="http://www.w3.org/2000/svg">
<g clip-path="url(#clip0_13_2)">
<path d="M21.8501 0.149994L15.8101 4.46999L21.8501 8.59999L27.8701 4.37999L21.8501 0.149994Z" fill="#F7F7F7" stroke="#EFEFEF" stroke-width="0.25" stroke-miterlimit="10"/>
<path d="M27.72 32.69L21.7 36.91L15.65 32.78L16.53 32.15L18.57 30.7L21.7 28.47L24.66 30.55L26.17 31.6L27.72 32.69Z" fill="#F7F7F7" stroke="#EFEFEF" stroke-width="0.25" stroke-miterlimit="10"/>
<path d="M12.34 18.91L6.32002 23.13L0.27002 19.01L6.32002 14.69L9.29002 16.77L10.65 17.73L12.34 18.91Z" fill="#F7F7F7" stroke="#EFEFEF" stroke-width="0.25" stroke-miterlimit="10"/>
<path d="M43.1 17.66L37.09 21.88L31.04 17.75L31.76 17.24L33.32 16.12L37.09 13.43L43.1 17.66Z" fill="#F7F7F7" stroke="#EFEFEF" stroke-width="0.25" stroke-miterlimit="10"/>
<path d="M27.55 6.39999V11.73L25.93 12.8L22.15 15.28V10.14L27.55 6.39999Z" fill="#F7F7F7" stroke="#EFEFEF" stroke-width="0.25" stroke-miterlimit="10"/>
<path d="M42.81 19.18L37.41 22.92V28.07L42.81 24.51V19.18Z" fill="#F7F7F7" stroke="#F2F2F2" stroke-width="0.25" stroke-miterlimit="10"/>
<path d="M27.55 35.03L22.16 38.78V43.92L27.55 40.37V35.03Z" fill="#F7F7F7" stroke="#EFEFEF" stroke-width="0.25" stroke-miterlimit="10"/>
<path d="M11.77 20.94V26.27L10.93 26.82L6.38 29.82V24.68L11.77 20.94Z" fill="#F7F7F7" stroke="#EFEFEF" stroke-width="0.25" stroke-miterlimit="10"/>
<path d="M21.1 9.81999V15.28L17.09 12.77L15.64 11.86V11.39L15.65 6.39999L21.1 9.81999Z" fill="#F7F7F7" stroke="#EFEFEF" stroke-width="0.25" stroke-miterlimit="10"/>
<path d="M0.140005 20.43L5.58 23.86V29.32L0.130005 25.89L0.140005 20.43Z" fill="#F7F7F7" stroke="#EFEFEF" stroke-width="0.25" stroke-miterlimit="10"/>
<path d="M15.66 35.18L21.1 38.61V44.07L15.64 40.64L15.66 35.18Z" fill="#F7F7F7" stroke="#EFEFEF" stroke-width="0.25" stroke-miterlimit="10"/>
<path d="M35.87 22.13V27.59L33.67 26.21L31.84 25.06L30.41 24.16L30.43 18.7L35.87 22.13Z" fill="#F7F7F7" stroke="#EFEFEF" stroke-width="0.25" stroke-miterlimit="10"/>
<path d="M17.09 12.92L10.65 17.73L9.29004 16.77L15.64 11.54V12.01L17.09 12.92Z" fill="#DBDBDB" stroke="#D8D8D8" stroke-width="0.25" stroke-miterlimit="10"/>
<path d="M33.17 16.12L31.61 17.24L26.08 12.95L27.7 11.88V11.73L33.17 16.12Z" fill="#DBDBDB" stroke="#D8D8D8" stroke-width="0.25" stroke-miterlimit="10"/>
<path d="M33.67 26.36L26.17 31.6L24.66 30.55L31.84 25.21L33.67 26.36Z" fill="#DBDBDB" stroke="#D8D8D8" stroke-width="0.25" stroke-miterlimit="10"/>
<path d="M18.57 30.7L16.53 32.15L11.08 26.97L11.92 26.42V25.95L18.57 30.7Z" fill="#DBDBDB" stroke="#D8D8D8" stroke-width="0.25" stroke-miterlimit="10"/>
<path d="M22.8 27.07V27.18L22.78 27.12L22.8 27.07Z" fill="#2D2D2D"/>
<path d="M25.36 16.94L21.53 25.76L21.51 25.81L21.48 25.76L17.41 17.05L21.42 19.26L25.36 16.94Z" fill="#19D135" stroke="#00BC0D" stroke-width="0.25" stroke-miterlimit="10"/>
<path d="M22.78 27.12L22.75 27.18V27.07L22.78 27.12Z" fill="#2D2D2D"/>
</g>
<defs>
<clipPath id="clip0_13_2">
<rect width="43.32" height="44.3" fill="white"/>
</clipPath>
</defs>
</svg>
